<?xml version="1.0" encoding="UTF-8" standalone="no"?><svg xmlns="http://www.w3.org/2000/svg" xmlns:xlink="http://www.w3.org/1999/xlink" contentScriptType="application/ecmascript" contentStyleType="text/css" height="320px" preserveAspectRatio="none" style="width:662px;height:320px;" version="1.1" viewBox="0 0 662 320" width="662px" zoomAndPan="magnify"><defs><filter height="300%" id="f1wfm990g61n56" width="300%" x="-1" y="-1"><feGaussianBlur result="blurOut" stdDeviation="2.0"/><feColorMatrix in="blurOut" result="blurOut2" type="matrix" values="0 0 0 0 0 0 0 0 0 0 0 0 0 0 0 0 0 0 .4 0"/><feOffset dx="4.0" dy="4.0" in="blurOut2" result="blurOut3"/><feBlend in="SourceGraphic" in2="blurOut3" mode="normal"/></filter></defs><g><!--MD5=[18ee719824a4cd87cdc072a4c8cc57d6]
entity cms--><rect fill="#FEFECE" filter="url(#f1wfm990g61n56)" height="47.6094" style="stroke:#A80036;stroke-width:1.5;" width="126" x="7" y="7"/><rect fill="#FEFECE" height="10" style="stroke:#A80036;stroke-width:1.5;" width="15" x="113" y="12"/><rect fill="#FEFECE" height="2" style="stroke:#A80036;stroke-width:1.5;" width="4" x="111" y="14"/><rect fill="#FEFECE" height="2" style="stroke:#A80036;stroke-width:1.5;" width="4" x="111" y="18"/><text fill="#000000" font-family="sans-serif" font-size="14" lengthAdjust="spacing" textLength="86" x="22" y="41.5332">Directus CMS</text><!--MD5=[608d1cc913e673ee5f798ece544755a2]
entity github--><rect fill="#FEFECE" filter="url(#f1wfm990g61n56)" height="47.6094" style="stroke:#A80036;stroke-width:1.5;" width="133" x="279.5" y="7"/><rect fill="#FEFECE" height="10" style="stroke:#A80036;stroke-width:1.5;" width="15" x="392.5" y="12"/><rect fill="#FEFECE" height="2" style="stroke:#A80036;stroke-width:1.5;" width="4" x="390.5" y="14"/><rect fill="#FEFECE" height="2" style="stroke:#A80036;stroke-width:1.5;" width="4" x="390.5" y="18"/><text fill="#000000" font-family="sans-serif" font-size="14" lengthAdjust="spacing" textLength="93" x="294.5" y="41.5332">GitHub Actions</text><!--MD5=[1da581a9c567b53f6432824bf8a5bf06]
entity hosting--><rect fill="#FEFECE" filter="url(#f1wfm990g61n56)" height="47.6094" style="stroke:#A80036;stroke-width:1.5;" width="147" x="359.5" y="133"/><rect fill="#FEFECE" height="10" style="stroke:#A80036;stroke-width:1.5;" width="15" x="486.5" y="138"/><rect fill="#FEFECE" height="2" style="stroke:#A80036;stroke-width:1.5;" width="4" x="484.5" y="140"/><rect fill="#FEFECE" height="2" style="stroke:#A80036;stroke-width:1.5;" width="4" x="484.5" y="144"/><text fill="#000000" font-family="sans-serif" font-size="14" lengthAdjust="spacing" textLength="107" x="374.5" y="167.5332">Firebase Hosting</text><!--MD5=[9e50c3cf258ab83ae7b40c7125ef99fe]
entity Algolia--><rect fill="#FEFECE" filter="url(#f1wfm990g61n56)" height="47.6094" style="stroke:#A80036;stroke-width:1.5;" width="82" x="566" y="7"/><rect fill="#FEFECE" height="10" style="stroke:#A80036;stroke-width:1.5;" width="15" x="628" y="12"/><rect fill="#FEFECE" height="2" style="stroke:#A80036;stroke-width:1.5;" width="4" x="626" y="14"/><rect fill="#FEFECE" height="2" style="stroke:#A80036;stroke-width:1.5;" width="4" x="626" y="18"/><text fill="#000000" font-family="sans-serif" font-size="14" lengthAdjust="spacing" textLength="42" x="581" y="41.5332">Algolia</text><!--MD5=[e9dede37b31fdda9664526f66258b036]
entity Browser--><rect fill="#FEFECE" filter="url(#f1wfm990g61n56)" height="47.6094" style="stroke:#A80036;stroke-width:1.5;" width="91" x="460.5" y="259"/><rect fill="#FEFECE" height="10" style="stroke:#A80036;stroke-width:1.5;" width="15" x="531.5" y="264"/><rect fill="#FEFECE" height="2" style="stroke:#A80036;stroke-width:1.5;" width="4" x="529.5" y="266"/><rect fill="#FEFECE" height="2" style="stroke:#A80036;stroke-width:1.5;" width="4" x="529.5" y="270"/><text fill="#000000" font-family="sans-serif" font-size="14" lengthAdjust="spacing" textLength="51" x="475.5" y="293.5332">Browser</text><!--MD5=[e68de9efa40de55dc21e17aecdddd7ec]
link cms to github--><path d="M114.23,55.12 C126.07,60.42 139.11,65.27 151.75,68 C175.43,73.11 237.03,72.92 260.75,68 C272.22,65.62 284.05,61.61 295.1,57.09 " fill="none" id="cms-to-github" style="stroke:#A80036;stroke-width:1.0;"/><polygon fill="#A80036" points="299.79,55.12,289.9436,54.9,295.1767,57.0481,293.0286,62.2813,299.79,55.12" style="stroke:#A80036;stroke-width:1.0;"/><text fill="#000000" font-family="sans-serif" font-size="13" lengthAdjust="spacing" textLength="107" x="152.75" y="48.4951">trigger deployment</text><text fill="#000000" font-family="sans-serif" font-size="13" lengthAdjust="spacing" textLength="107" x="152.75" y="64.8467">on content change</text><!--MD5=[23f552e3debf742fdff6eba66669e3a7]
reverse link cms to github--><path d="M138.49,31 C181.43,31 236.5,31 279.12,31 " fill="none" id="cms-backto-github" style="stroke:#A80036;stroke-width:1.0;"/><polygon fill="#A80036" points="133.32,31,142.32,35,138.32,31,142.32,27,133.32,31" style="stroke:#A80036;stroke-width:1.0;"/><text fill="#000000" font-family="sans-serif" font-size="13" lengthAdjust="spacing" textLength="110" x="151.25" y="24.4951">query data on build</text><!--MD5=[f51014b1f3c8fc5f8fd76a0ad104b792]
link github to Algolia--><path d="M412.54,31 C458.88,31 519.53,31 560.69,31 " fill="none" id="github-to-Algolia" style="stroke:#A80036;stroke-width:1.0;"/><polygon fill="#A80036" points="565.86,31,556.86,27,560.86,31,556.86,35,565.86,31" style="stroke:#A80036;stroke-width:1.0;"/><text fill="#000000" font-family="sans-serif" font-size="13" lengthAdjust="spacing" textLength="117" x="430.75" y="24.4951">update search index</text><!--MD5=[001d367df0267309b948e50c4bf24617]
link github to hosting--><path d="M362.16,55.03 C376.72,75.78 398.15,106.32 413.62,128.38 " fill="none" id="github-to-hosting" style="stroke:#A80036;stroke-width:1.0;"/><polygon fill="#A80036" points="416.63,132.67,414.7276,123.0066,413.755,128.5792,408.1824,127.6066,416.63,132.67" style="stroke:#A80036;stroke-width:1.0;"/><text fill="#000000" font-family="sans-serif" font-size="13" lengthAdjust="spacing" textLength="122" x="396" y="99.4951">deploy static website</text><!--MD5=[ded8258930e0ee3628fbd2d35201d9ce]
reverse link hosting to Browser--><path d="M428.79,186.31 C428.07,199.93 429.23,216.07 436,229 C442.22,240.88 452.44,250.86 463.17,258.83 " fill="none" id="hosting-backto-Browser" style="stroke:#A80036;stroke-width:1.0;"/><polygon fill="#A80036" points="429.17,181.03,424.5372,189.7212,428.8127,186.0172,432.5167,190.2928,429.17,181.03" style="stroke:#A80036;stroke-width:1.0;"/><text fill="#000000" font-family="sans-serif" font-size="13" lengthAdjust="spacing" textLength="114" x="437" y="225.4951">get HTML, JS, CSS</text><!--MD5=[f5fcf706f9bdb451e511739d3c2f6ef6]
reverse link Algolia to Browser--><path d="M604.15,60.39 C599.19,100.21 586.41,173.96 556,229 C550,239.85 541.27,250.16 532.78,258.75 " fill="none" id="Algolia-backto-Browser" style="stroke:#A80036;stroke-width:1.0;"/><polygon fill="#A80036" points="604.77,55.23,599.7175,63.6841,604.1692,60.1938,607.6596,64.6454,604.77,55.23" style="stroke:#A80036;stroke-width:1.0;"/><text fill="#000000" font-family="sans-serif" font-size="13" lengthAdjust="spacing" textLength="39" x="591" y="162.4951">search</text><!--MD5=[5936bf0a7324b6ee247441efeb1b8b34]
@startuml Architecture
component "Directus CMS" as cms
component "GitHub Actions" as github
component "Firebase Hosting" as hosting

cms -right-> github: trigger deployment\non content change
github -left-> cms: query data on build
github -right- -> [Algolia]: update search index
github -down-> hosting: deploy static website

[Browser] -up-> hosting: get HTML, JS, CSS
[Browser] -up- -> [Algolia]: search

@enduml

PlantUML version 1.2021.00(Sun Jan 10 17:25:05 NOVT 2021)
(MIT source distribution)
Java Runtime: Java(TM) SE Runtime Environment
JVM: Java HotSpot(TM) 64-Bit Server VM
Default Encoding: UTF-8
Language: ru
Country: RU
--></g></svg>